# xmcd
#
# Track frame offsets: 
#        150
#        10912
#        20755
#        32040
#        43767
#        56972
#        68570
#        77972
#        88825
#        98457
#        108835
#        121307
#        132737
#        143970
#        153907
#        166042
#        175650
#        186077
#        198302
#        211592
#        222290
#        233512
#        242667
#        252707
#        262797
#        273532
#        284102
#        295770
#        307755
#        318437
#
# Disc length: 4400 seconds
#
# Revision: 2
# Processed by: cddbd v1.5.2PL0 Copyright (c) Steve Scherf et al.
# Submitted via: ExactAudioCopy v0.99pb4
#
DISCID=ac112e1e
DTITLE=Johnny Horton - The Early Years CD2
DYEAR=1998
DGENRE=Country
TTITLE0=First Train Headin' South
TTITLE1=The Rest Of Your Life
TTITLE2=(I Wished For An Angel) The Devil Sent Me You
TTITLE3=This Won't Be The First Time
TTITLE4=Child's Side Of Life
TTITLE5=I Won't Forget
TTITLE6=S.S. Lureline
TTITLE7=The Mansion You Stole
TTITLE8=I Won't Get Dreamy Eyed
TTITLE9=Tennessee Jive
TTITLE10=Another Woman Wears My Wedding Ring
TTITLE11=You You You
TTITLE12=All For The Love Of A Girl
TTITLE13=Two Red Lips And Warm Red Wine
TTITLE14=Back To My Back Street
TTITLE15=Broken Hearted Gypsy
TTITLE16=Move Down The Line
TTITLE17=The Train With The Rhumba Beat
TTITLE18=There'll Never Be Another Mary
TTITLE19=No True Love
TTITLE20=The Devil Made A Masterpiece
TTITLE21=Ha Ha And Moonface
TTITLE22=You Cry In The Door Of Your Mansion
TTITLE23=Where Are You
TTITLE24=Meant So Little To You
TTITLE25=Ridin' The Sunshine Special
TTITLE26=Hey Sweet Thing
TTITLE27=Journey With No End
TTITLE28=Big Wheels Rollin'
TTITLE29=You Don't Move Me Anymore
EXTD=
EXTT0=
EXTT1=
EXTT2=
EXTT3=
EXTT4=
EXTT5=
EXTT6=
EXTT7=
EXTT8=
EXTT9=
EXTT10=
EXTT11=
EXTT12=
EXTT13=
EXTT14=
EXTT15=
EXTT16=
EXTT17=
EXTT18=
EXTT19=
EXTT20=
EXTT21=
EXTT22=
EXTT23=
EXTT24=
EXTT25=
EXTT26=
EXTT27=
EXTT28=
EXTT29=
PLAYORDER=
